<svg width="128" height="128" viewBox="0 0 128 128" fill="none" xmlns="http://www.w3.org/2000/svg">
    <defs>
        <filter id="aurora-glow" x="-50%" y="-50%" width="200%" height="200%">
            <feGaussianBlur stdDeviation="2" result="blur"/>
            <feComposite in="SourceGraphic" in2="blur" operator="over"/>
        </filter>
        <linearGradient id="flow-gradient" x1="0" y1="1" x2="0" y2="0">
            <stop offset="0%" stop-color="#D8DEE9" stop-opacity="0.5"/> <stop offset="100%" stop-color="#88C0D0"/> </linearGradient>
    </defs>

    <rect width="128" height="128" rx="24" fill="#2E3440"/>

    <g transform="translate(0, 10)"> <path d="M64 98 L100 90 L100 96 L64 104 L28 96 L28 90 Z" fill="#4C566A"/>
        <path d="M64 98 L28 90 L32 70 L64 85 Z" fill="#D8DEE9"/>
        <path d="M64 98 L100 90 L96 70 L64 85 Z" fill="#D8DEE9"/>
        <path d="M64 85 L64 98" stroke="#3B4252" stroke-width="2" stroke-linecap="round"/>
        <path d="M35 82 L58 87 M37 77 L60 82" stroke="#4C566A" stroke-width="1" opacity="0.3"/>
        <path d="M93 82 L70 87 M91 77 L68 82" stroke="#4C566A" stroke-width="1" opacity="0.3"/>
    </g>

    <g filter="url(#aurora-glow)" stroke-linecap="round">
        <path d="M40 85 C 40 70, 45 60, 50 55" stroke="url(#flow-gradient)" stroke-width="2" fill="none" stroke-dasharray="4 4"/>
        <path d="M88 85 C 88 70, 83 60, 78 55" stroke="url(#flow-gradient)" stroke-width="2" fill="none" stroke-dasharray="4 4"/>
    </g>

    <g transform="translate(64, 45)" filter="url(#aurora-glow)">
        <g stroke="#88C0D0" stroke-width="2" stroke-linecap="round">
            <path d="M-20 5 L-12 -10 L 0 -15 L 12 -10 L 20 5"/>
            <path d="M-20 5 L -8 15 L 8 15 L 20 5"/>
            <path d="M-12 -10 L -8 15"/>
            <path d="M12 -10 L 8 15"/>
            <path d="M0 -15 L 0 0"/>
        </g>

        <g stroke="#2E3440" stroke-width="1"> <circle cx="0" cy="-15" r="4.5" fill="#EBCB8B"/>
            <circle cx="0" cy="0" r="3.5" fill="#EBCB8B"/>
            <circle cx="-20" cy="5" r="4" fill="#A3BE8C"/>
            <circle cx="20" cy="5" r="4" fill="#A3BE8C"/>
            <circle cx="-12" cy="-10" r="3.5" fill="#A3BE8C"/>
            <circle cx="12" cy="-10" r="3.5" fill="#A3BE8C"/>
             <circle cx="-8" cy="15" r="3" fill="#88C0D0"/>
            <circle cx="8" cy="15" r="3" fill="#88C0D0"/>
        </g>
    </g>
</svg>
